<svg preserveAspectRatio="none" overflow="visible" style="display: block;" width="27.5612" height="27.5612" viewBox="0 0 27.5612 27.5612" fill="none" xmlns="http://www.w3.org/2000/svg">
<path id="Icon" d="M6.28059 6.51037L11.9056 12.3939M6.28059 6.51037H2.53059L1.28059 2.58804L2.53059 1.2806L6.28059 2.58804V6.51037ZM22.8543 2.24943L19.5698 5.68489C19.0748 6.20266 18.8273 6.46154 18.7345 6.76007C18.653 7.02266 18.653 7.30552 18.7345 7.56811C18.8273 7.86664 19.0748 8.12552 19.5698 8.64329L19.8664 8.95349C20.3614 9.47126 20.6089 9.73015 20.8943 9.82715C21.1454 9.91247 21.4158 9.91247 21.6669 9.82715C21.9523 9.73015 22.1998 9.47126 22.6948 8.9535L25.7672 5.73992C26.0981 6.58213 26.2806 7.50454 26.2806 8.47153C26.2806 12.443 23.2025 15.6625 19.4056 15.6625C18.9478 15.6625 18.5005 15.6157 18.0678 15.5264C17.4601 15.4011 17.1563 15.3384 16.9721 15.3576C16.7762 15.378 16.6797 15.4087 16.5062 15.5058C16.343 15.5972 16.1793 15.7684 15.8519 16.1109L6.90559 25.4683C5.87006 26.5514 4.19112 26.5514 3.15559 25.4683C2.12006 24.3851 2.12006 22.6291 3.15559 21.5459L12.1019 12.1886C12.4293 11.8461 12.593 11.6748 12.6804 11.5041C12.7732 11.3226 12.8026 11.2217 12.8221 11.0169C12.8404 10.8242 12.7805 10.5064 12.6607 9.87081C12.5753 9.4182 12.5306 8.95033 12.5306 8.47153C12.5306 4.50009 15.6086 1.2806 19.4056 1.2806C20.6625 1.2806 21.8406 1.63338 22.8543 2.24943ZM13.7807 18.2773L20.6556 25.4681C21.6911 26.5513 23.37 26.5513 24.4056 25.4681C25.4411 24.385 25.4411 22.6289 24.4056 21.5458L18.7497 15.6302C18.3494 15.5905 17.959 15.515 17.5816 15.4066C17.0952 15.267 16.5618 15.3684 16.2052 15.7414L13.7807 18.2773Z" stroke="white" stroke-width="2.56112" stroke-linecap="round" stroke-linejoin="round"/>
</svg>
